<?xml version="1.0" encoding="UTF-8"?>
<svg xmlns="http://www.w3.org/2000/svg" xmlns:xlink="http://www.w3.org/1999/xlink" viewBox="0 0 50 50" width="50px" height="50px">
<g id="surface194389680">
<path style=" stroke:none;fill-rule:nonzero;fill:rgb(100%,100%,100%);fill-opacity:1;" d="M 13.332031 4 C 8.191406 4 4 8.191406 4 13.332031 L 4 36.667969 C 4 41.808594 8.191406 46 13.332031 46 L 36.667969 46 C 41.808594 46 46 41.808594 46 36.667969 L 46 13.332031 C 46 8.191406 41.808594 4 36.667969 4 Z M 13.332031 6 L 36.667969 6 C 40.730469 6 44 9.269531 44 13.332031 L 44 36.667969 C 44 40.730469 40.730469 44 36.667969 44 L 13.332031 44 C 9.269531 44 6 40.730469 6 36.667969 L 6 13.332031 C 6 9.269531 9.269531 6 13.332031 6 Z M 32.984375 15.488281 C 32.433594 15.496094 31.992188 15.949219 32 16.5 L 32 28 C 31.996094 28.359375 32.183594 28.695312 32.496094 28.878906 C 32.808594 29.058594 33.191406 29.058594 33.503906 28.878906 C 33.816406 28.695312 34.003906 28.359375 34 28 L 34 16.5 C 34.003906 16.230469 33.898438 15.96875 33.707031 15.777344 C 33.515625 15.585938 33.253906 15.480469 32.984375 15.488281 Z M 21.5 15.5 C 17.371094 15.5 14 18.871094 14 23 L 14 27 C 14 31.128906 17.371094 34.5 21.5 34.5 C 25.628906 34.5 29 31.128906 29 27 L 29 23 C 29 18.871094 25.628906 15.5 21.5 15.5 Z M 21.5 17.5 C 24.550781 17.5 27 19.949219 27 23 L 27 27 C 27 30.050781 24.550781 32.5 21.5 32.5 C 18.449219 32.5 16 30.050781 16 27 L 16 23 C 16 19.949219 18.449219 17.5 21.5 17.5 Z M 33 32 C 32.171875 32 31.5 32.671875 31.5 33.5 C 31.5 34.328125 32.171875 35 33 35 C 33.828125 35 34.5 34.328125 34.5 33.5 C 34.5 32.671875 33.828125 32 33 32 Z M 33 32 "/>
</g>
</svg>
