<svg width="825" height="394" viewBox="0 0 825 394" fill="none" xmlns="http://www.w3.org/2000/svg">
<path d="M206.362 246.625C173.968 231.863 144.359 217.027 118.421 202.497C84.5178 183.505 58.7413 166.065 41.8079 150.663C23.8799 134.354 16.5803 120.85 20.1118 110.523C26.9906 90.4061 72.7925 89.7768 110.004 92.7912L109.762 95.7821C58.6606 91.6419 27.8307 97.2217 22.9499 111.494C16.7337 129.673 52.066 161.887 119.887 199.879C189.333 238.781 285.296 279.944 390.101 315.781C494.905 351.621 595.978 377.838 674.703 389.605C751.586 401.097 799.246 397.262 805.462 379.084C810.623 363.991 787.19 339.114 739.478 309.035L741.078 306.497C775.746 328.353 815.55 358.856 808.301 380.054C804.77 390.381 790.729 396.588 766.57 398.504C743.75 400.313 712.693 398.317 674.26 392.572C595.361 380.78 494.1 354.516 389.13 318.62C323.28 296.101 260.889 271.474 206.362 246.625Z" fill="#6C63FF"/>
</svg>
